HIERARCHY
ROOT Root
{
	OFFSET 0.00000 0.00000 0.00000
	CHANNELS 6 Xposition Yposition Zposition Zrotation Xrotation Yrotation
	JOINT Hip
	{
		OFFSET 0 0 0	
		CHANNELS 3 Zrotation Xrotation Yrotation
		JOINT Tummy
		{
			OFFSET 0 0.04 0	
			CHANNELS 3 Zrotation Xrotation Yrotation
			JOINT ChestBottom
			{
				OFFSET 0 0.194 0	
				CHANNELS 3 Zrotation Xrotation Yrotation
				JOINT ChestTop
				{
					OFFSET 0 0.166 0	
					CHANNELS 3 Zrotation Xrotation Yrotation
					JOINT LeftCollar
					{
						OFFSET 0 0.1 0	
						CHANNELS 3 Zrotation Xrotation Yrotation
						JOINT LeftUpperArm
						{
							OFFSET 0.156 -0.02 0.03	
							CHANNELS 3 Zrotation Xrotation Yrotation
							JOINT LeftForeArm
							{
								OFFSET 0.035 -0.27 -0.01	
								CHANNELS 3 Zrotation Xrotation Yrotation
								JOINT LeftHand
								{
									OFFSET 0.01 -0.27 0.01	
									CHANNELS 3 Zrotation Xrotation Yrotation
									End Site
									{
										OFFSET 0 -0.15 0
									}
								}
							}
						}
					}
					JOINT RightCollar
					{
						OFFSET 0 0.1 0	
						CHANNELS 3 Zrotation Xrotation Yrotation
						JOINT RightUpperArm
						{
							OFFSET -0.156 -0.02 0.03	
							CHANNELS 3 Zrotation Xrotation Yrotation
							JOINT RightForeArm
							{
								OFFSET -0.035 -0.27 -0.01	
								CHANNELS 3 Zrotation Xrotation Yrotation
								JOINT RightHand
								{
									OFFSET -0.01 -0.27 0.01	
									CHANNELS 3 Zrotation Xrotation Yrotation
									End Site
									{
										OFFSET 0 -0.15 0
									}
								}
							}
						}
					}
					JOINT Neck
					{
						OFFSET 0 0.1 0	
						CHANNELS 3 Zrotation Xrotation Yrotation
						JOINT Head
						{
							OFFSET 0 0.127 0.03	
							CHANNELS 3 Zrotation Xrotation Yrotation
							End Site
							{
								OFFSET 0 0.127 0.03
							}
						}
					}
				}
			}
		}
	}
	JOINT LeftHip
	{
		OFFSET 0 0 0	
		CHANNELS 3 Zrotation Xrotation Yrotation
		JOINT LeftThigh
		{
			OFFSET 0.088 -0.06 0	
			CHANNELS 3 Zrotation Xrotation Yrotation
			JOINT LeftLowerLeg
			{
				OFFSET 0 -0.39 0.02	
				CHANNELS 3 Zrotation Xrotation Yrotation
				JOINT LeftFootTop
				{
					OFFSET 0 -0.43 -0.02	
					CHANNELS 3 Zrotation Xrotation Yrotation
					JOINT LeftFootFront
					{
						OFFSET 0 -0.07 0.085	
						CHANNELS 3 Zrotation Xrotation Yrotation
						End Site
						{
							OFFSET 0 -0.005 0.09
						}
					}
				}
				JOINT LeftHeel
				{
					OFFSET 0 -0.43 -0.02	
					CHANNELS 3 Zrotation Xrotation Yrotation
					End Site
					{
						OFFSET 0 -0.075 -0.05
					}
				}
			}
		}
	}
	JOINT RightHip
	{
		OFFSET 0 0 0	
		CHANNELS 3 Zrotation Xrotation Yrotation
		JOINT RightThigh
		{
			OFFSET -0.088 -0.06 0	
			CHANNELS 3 Zrotation Xrotation Yrotation
			JOINT RightLowerLeg
			{
				OFFSET 0 -0.39 0.02	
				CHANNELS 3 Zrotation Xrotation Yrotation
				JOINT RightFootTop
				{
					OFFSET 0 -0.43 -0.02	
					CHANNELS 3 Zrotation Xrotation Yrotation
					JOINT RightFootFront
					{
						OFFSET 0 -0.07 0.085	
						CHANNELS 3 Zrotation Xrotation Yrotation
						End Site
						{
							OFFSET 0 -0.005 0.09
						}
					}
				}
				JOINT RightHeel
				{
					OFFSET 0 -0.43 -0.02	
					CHANNELS 3 Zrotation Xrotation Yrotation
					End Site
					{
						OFFSET 0 -0.075 -0.05
					}
				}
			}
		}
	}
}
MOTION
Frames: 13
Frame Time: 0.05
0 0.96943 0 -0 0 -0 -1.3235 0.42622 0.70065 0.97799 -0.92366 -0.0076125 0.97799 -0.92366 -0.0076126 0.8215 -0.77587 -0.007454 -0 0 -0 5.5634 7.0037 3.3267 -4.8305 -0.63647 -14.801 -0 0 1.8676e-07 -0 0 -0 -4.0333 -0.095062 -8.3982 11.789 -8.4216 -17.968 -0 0 7.4705e-07 -0 0 -0 -0 0 -0 -1.3235 0.42622 0.70065 4.166 -2.9512 -8.6234 -7.0794 8.2487 9.7632 -0 0 -0 5.6973e-11 -0.081565 8.0041e-08 -0 0 -0 -1.3235 0.42622 0.70065 -2.7717 -1.8304 3.6953 9.182 0.1617 -12.317 -0 0 -0 -0 0 2.4513e-07 -0 0 -0 
0 0.96942 0 -0 0 -0 -1.3203 0.45994 0.66388 1.0008 -0.9075 -0.016318 1.0008 -0.9075 -0.016318 0.84066 -0.76228 -0.014772 -0 0 -0 5.4435 6.9904 3.2638 -4.3645 -0.28686 -15.96 -0.10665 -0.15782 0.49189 -0 0 -0 -4.0905 -0.078112 -8.3679 11.635 -8.2849 -17.831 0.0097344 -0.003619 0.042493 -0 0 -0 -0 0 -0 -1.3203 0.45994 0.66388 4.1524 -2.9747 -8.6363 -7.0363 8.2044 9.7873 -0 0 -0 -0 0 4.0021e-08 -0 0 -0 -1.3203 0.45994 0.66388 -2.7869 -1.8423 3.6934 9.1704 0.1502 -12.3 -0 0 -0 0 0 -1.2506e-07 -0 0 -0 
0 0.96936 0 -0 0 -0 -1.3199 0.50731 0.6378 1.0122 -0.91091 -0.02825 1.0122 -0.91091 -0.02825 0.85026 -0.76513 -0.024811 -0 0 -0 5.3614 7.0171 3.193 -4.1896 -0.1835 -16.137 -0.028658 -0.049742 0.22407 -0 0 -0 -4.1136 -0.039218 -8.3938 11.501 -8.1314 -17.555 0.034251 -0.016818 0.027607 -0 0 -0 -0 0 -0 -1.3199 0.50731 0.6378 4.1413 -3.0151 -8.6596 -7.0011 8.1549 9.8112 -0 0 -0 0 0 -2.668e-08 -0 0 -0 -1.3199 0.50731 0.6378 -2.7864 -1.8607 3.6854 9.1333 0.12481 -12.271 -0 0 -0 0 0 -5.5028e-08 -0 0 -0 
0 0.96921 0 -0 0 -0 -1.3378 0.54019 0.5772 0.98529 -0.90871 0.0020866 0.98529 -0.90871 0.0020867 0.82763 -0.76332 0.00070246 -0 0 -0 5.469 7.0251 3.14 -4.1488 -0.13997 -15.979 0.021234 -0.071607 0.17514 -0 0 -0 -4.0496 -0.010574 -8.5403 11.464 -8.0052 -17.189 0.040617 -0.010847 0.039843 -0 0 -0 -0 0 -0 -1.3378 0.54019 0.5772 4.1524 -3.0662 -8.6519 -6.9606 8.17 9.8355 -0 0 -0 -0 0 1.334e-08 -0 0 -0 -1.3378 0.54019 0.5772 -2.7516 -1.8797 3.7093 9.0844 0.12837 -12.225 -0 0 -0 -0 0 7.0036e-08 -0 0 -0 
9.0515e-06 0.9689 2.9514e-05 -0 0 -0 -1.3268 0.56156 0.548 0.95533 -0.87314 0.035222 0.95533 -0.87314 0.035222 0.80243 -0.73348 0.028608 -0 0 -0 5.5475 6.9389 3.1168 -4.0955 -0.23564 -15.529 0.13527 -0.22244 0.5321 -0 0 -0 -4.0545 -0.054037 -8.7483 11.547 -7.9229 -16.716 0.013297 -0.027428 0.18059 -0 0 -0 -0 0 -0 -1.3268 0.56156 0.548 4.1106 -3.2096 -8.714 -6.971 8.2679 9.9274 -0 0 -0 -0 0 1.334e-08 -0 0 -0 -1.3268 0.56156 0.548 -2.7499 -1.957 3.7205 9.034 0.27631 -12.266 -0 0 -0 -0 0 2.3054e-07 -0 0 -0 
3.7976e-05 0.9683 0.0001251 -0 0 -0 -1.2364 0.66782 0.70666 0.87252 -0.84977 0.025246 0.87252 -0.84977 0.025246 0.73288 -0.71383 0.020337 -0 0 -0 5.7177 6.8436 3.0902 -3.9207 -0.87822 -14.073 0.18325 -0.59516 2.1865 -0 0 -0 -4.0488 -0.11846 -8.9852 11.692 -7.9297 -15.914 0.015337 -0.17677 0.42367 -0 0 -0 -0 0 -0 -1.2364 0.66782 0.70666 3.9657 -3.6145 -8.9841 -6.9855 8.5976 10.064 -0 0 -0 -0 0 2.668e-08 -0 0 -0 -1.2364 0.66782 0.70666 -2.8264 -2.2353 3.4985 9.0173 0.71602 -12.376 -0 0 -0 -0 0 4.0396e-07 -0 0 -0 
3.3536e-05 0.96728 0.0002326 -0 0 -0 -1.0503 1.0664 1.3423 0.75929 -0.83785 -0.16726 0.75929 -0.83785 -0.16726 0.63796 -0.70364 -0.14124 -0 0 -0 5.8525 6.6181 3.212 -3.6189 -2.875 -8.3129 -0.03384 -0.66012 3.6434 -0 0 -0 -4.1287 -0.38774 -9.0232 11.819 -8.3748 -14.427 -0.00060934 -0.38199 0.98155 -0 0 -0 -0 0 -0 -1.0503 1.0664 1.3423 3.6567 -4.675 -9.6597 -7.0748 9.3524 10.168 -0 0 -0 2.1357e-07 -0.16071 9.3681e-08 -0 0 -0 -1.0503 1.0664 1.3423 -2.9698 -2.972 2.7168 8.9913 1.5974 -12.563 -0 0 -0 0 0 -3.4018e-07 -0 0 -0 
-0.00018406 0.96558 0.00014749 -0 0 -0 -0.94436 1.5482 2.3636 0.69049 -0.61222 -0.53671 0.69049 -0.61222 -0.53671 0.58039 -0.51383 -0.45133 -0 0 -0 5.5239 6.1408 3.9702 -2.8675 -6.5328 4.3416 -0.85491 -0.6793 3.2967 -0 0 -0 -4.3376 -1.2293 -8.7603 11.849 -9.7275 -11.208 0.048643 -0.30028 1.3679 -0 0 -0 -0 0 -0 -0.94436 1.5482 2.3636 3.2658 -6.2829 -10.776 -7.2577 10.72 10.385 -0 0 -0 2.1328e-07 -0.48051 -3.9127e-08 -0 0 -0 -0.94436 1.5482 2.3636 -2.9611 -4.2194 1.657 8.9259 3.2903 -13.066 -0 0 -0 -0 0 2.2011e-07 -0 0 -0 
-0.00098206 0.96282 -0.00056754 -0 0 -0 -0.25511 2.6402 3.8667 0.35577 -0.30092 -1.0686 0.35577 -0.30092 -1.0686 0.29922 -0.25233 -0.89778 -0 0 -0 4.1582 5.1197 6.2094 -1.8326 -11.971 22.17 -2.7101 -0.86491 4.1619 -0 0 -0 -4.4151 -2.7234 -8.5652 12.027 -11.868 -5.2482 0.4099 -0.34024 0.26377 -0 0 -0 -0 0 -0 -0.25511 2.6402 3.8667 2.1459 -9.0526 -12.471 -7.7709 13.012 10.815 -0 0 -0 2.1334e-07 -1.2009 -1.1105e-08 -0 0 -0 -0.25511 2.6402 3.8667 -3.5623 -6.8026 0.5138 8.9056 6.093 -14.066 -0 0 -0 0 0 -8.0041e-08 -0 0 -0 
-0.0028945 0.9583 -0.0026198 -0 0 -0 0.45942 5.0271 6.2199 0.040241 -0.36226 -1.8147 0.040241 -0.36226 -1.8147 0.034574 -0.30421 -1.5243 -0 0 -0 2.2752 3.1697 9.2966 -2.9981 -20.808 46.548 -3.3745 -0.071649 2.7354 -0 0 -0 -4.5759 -4.0463 -8.8706 13.249 -15.036 1.754 0.71712 -0.7449 -1.7994 -0 0 -0 -0 0 -0 0.45942 5.0271 6.2199 0.58559 -13.765 -14.54 -8.5759 16.692 10.934 -0 0 -0 -0 0 -0 -0 0 -0 0.45942 5.0271 6.2199 -4.6178 -11.439 -1.3992 8.939 9.9659 -14.826 -0 0 -0 0 0 -2.4012e-07 -0 0 -0 
-0.0062915 0.95147 -0.0062959 -0 0 -0 0.021677 6.4223 9.2902 0.4537 0.17053 -2.7695 0.4537 0.17053 -2.7695 0.38056 0.14473 -2.3263 -0 0 -0 -0.87531 0.034114 11.493 -2.9775 -35.243 77.119 0.37142 1.4655 -3.7665 -0 0 -0 -5.6768 -5.5297 -8.9749 16.562 -20.201 5.626 0.6152 -0.43185 -3.0002 -0 0 -0 -0 0 -0 0.021677 6.4223 9.2902 -0.37911 -18.993 -16.457 -9.576 22.686 10.671 -0 0 -0 3.7283e-10 -0.26688 1.6008e-07 -0 0 -0 0.021677 6.4223 9.2902 -5.1098 -16.458 -4.4627 8.4245 15.818 -14.176 -0 0 -0 0 0 -8.0041e-08 -0 0 -0 
-0.010859 0.94213 -0.01075 -0 0 -0 -0.62466 6.0067 12.246 1.5947 1.378 -3.9313 1.5947 1.378 -3.9313 1.3332 1.1649 -3.2996 -0 0 -0 -4.9615 -2.8746 8.9211 6.4011 -48.252 110.53 4.854 1.7948 -9.8703 -0 0 -0 -7.7653 -6.5956 -6.694 20.572 -27.554 2.9939 0.6257 -0.080604 -3.9667 -0 0 -0 -0 0 -0 -0.62466 6.0067 12.246 -0.58552 -26.056 -18.244 -12.811 32.723 11.365 -0 0 -0 -0 0 -0 -0 0 -0 -0.62466 6.0067 12.246 -5.2198 -21.267 -6.0216 7.4663 24.166 -13.987 -0 0 -0 -2.0996e-07 -2.6086 1.5534e-07 -0 0 -0 
-0.015324 0.9312 -0.013831 -0 0 -0 -1.2443 5.3935 12.477 2.6547 2.3649 -3.648 2.6547 2.3649 -3.648 2.2196 1.9979 -3.0567 -0 0 -0 -8.2522 -5.4911 1.5076 14.897 -50.537 126.47 2.3601 0.93644 -4.7791 -0 0 -0 -9.5553 -6.8367 -4.5397 24.436 -35.912 -7.7699 0.34843 1.2387 -0.63681 -0 0 -0 -0 0 -0 -1.2443 5.3935 12.477 1.5472 -33.858 -16.47 -18.359 43.583 12.383 -0 0 -0 -0 0 -0 -0 0 -0 -1.2443 5.3935 12.477 -4.2217 -25.346 -4.6713 7.1087 32.495 -15.067 -0 0 -0 -1.5194e-08 -6.3311 -2.7473e-07 -0 0 -0 
